<?xml version="1.0" encoding="UTF-8" standalone="no"?>
<!-- Generator: Adobe Illustrator 19.0.0, SVG Export Plug-In . SVG Version: 6.00 Build 0)  -->

<svg
   xmlns:dc="http://purl.org/dc/elements/1.1/"
   xmlns:cc="http://creativecommons.org/ns#"
   xmlns:rdf="http://www.w3.org/1999/02/22-rdf-syntax-ns#"
   xmlns:svg="http://www.w3.org/2000/svg"
   xmlns="http://www.w3.org/2000/svg"
   xmlns:sodipodi="http://sodipodi.sourceforge.net/DTD/sodipodi-0.dtd"
   xmlns:inkscape="http://www.inkscape.org/namespaces/inkscape"
   version="1.1"
   id="Capa_1"
   x="0px"
   y="0px"
   viewBox="0 0 11 11"
   xml:space="preserve"
   sodipodi:docname="arrow-leftsvg.svg"
   width="11"
   height="11"
   inkscape:version="0.92.2 2405546, 2018-03-11"><metadata
     id="metadata39"><rdf:RDF><cc:Work
         rdf:about=""><dc:format>image/svg+xml</dc:format><dc:type
           rdf:resource="http://purl.org/dc/dcmitype/StillImage" /><dc:title></dc:title></cc:Work></rdf:RDF></metadata><defs
     id="defs37" /><sodipodi:namedview
     pagecolor="#ffffff"
     bordercolor="#666666"
     borderopacity="1"
     objecttolerance="10"
     gridtolerance="10"
     guidetolerance="10"
     inkscape:pageopacity="0"
     inkscape:pageshadow="2"
     inkscape:window-width="1131"
     inkscape:window-height="839"
     id="namedview35"
     showgrid="false"
     inkscape:pagecheckerboard="true"
     inkscape:zoom="44.953451"
     inkscape:cx="5.5074593"
     inkscape:cy="5.8504964"
     inkscape:window-x="630"
     inkscape:window-y="158"
     inkscape:window-maximized="0"
     inkscape:current-layer="Capa_1" /><path
     d="m 2.2707356,5.7287674 6.2144375,4.2858186 c 0.06579,0.04522 0.151075,0.04993 0.221362,0.01329 0.0705,-0.03708 0.114646,-0.1099356 0.114646,-0.1896516 v -8.571636 c 0,-0.07972 -0.04414,-0.15279 -0.114646,-0.189862 -0.03129,-0.01629 -0.06557,-0.02443 -0.09964,-0.02443 -0.04264,0 -0.08507,0.01286 -0.121717,0.03793 l -6.2144375,4.285818 c -0.05807,0.04007 -0.09257,0.10586 -0.09257,0.176362 0,0.0705 0.03471,0.136289 0.09257,0.176361 z"
     id="path2"
     inkscape:connector-curvature="0"
     style="fill:#ffffff;fill-opacity:1;stroke-width:0.21429092" /><g
     id="g4"
     transform="translate(0,-30.999001)" /><g
     id="g6"
     transform="translate(0,-30.999001)" /><g
     id="g8"
     transform="translate(0,-30.999001)" /><g
     id="g10"
     transform="translate(0,-30.999001)" /><g
     id="g12"
     transform="translate(0,-30.999001)" /><g
     id="g14"
     transform="translate(0,-30.999001)" /><g
     id="g16"
     transform="translate(0,-30.999001)" /><g
     id="g18"
     transform="translate(0,-30.999001)" /><g
     id="g20"
     transform="translate(0,-30.999001)" /><g
     id="g22"
     transform="translate(0,-30.999001)" /><g
     id="g24"
     transform="translate(0,-30.999001)" /><g
     id="g26"
     transform="translate(0,-30.999001)" /><g
     id="g28"
     transform="translate(0,-30.999001)" /><g
     id="g30"
     transform="translate(0,-30.999001)" /><g
     id="g32"
     transform="translate(0,-30.999001)" /></svg>