<?xml version="1.0" encoding="UTF-8" standalone="no"?>
<!-- Generator: Adobe Illustrator 19.0.0, SVG Export Plug-In . SVG Version: 6.00 Build 0)  -->

<svg
   xmlns:dc="http://purl.org/dc/elements/1.1/"
   xmlns:cc="http://creativecommons.org/ns#"
   xmlns:rdf="http://www.w3.org/1999/02/22-rdf-syntax-ns#"
   xmlns:svg="http://www.w3.org/2000/svg"
   xmlns="http://www.w3.org/2000/svg"
   xmlns:sodipodi="http://sodipodi.sourceforge.net/DTD/sodipodi-0.dtd"
   xmlns:inkscape="http://www.inkscape.org/namespaces/inkscape"
   version="1.1"
   id="Capa_1"
   x="0px"
   y="0px"
   viewBox="0 0 24 24"
   xml:space="preserve"
   sodipodi:docname="combo-arrow-down.svg"
   width="24"
   height="24"
   inkscape:version="0.92.2 2405546, 2018-03-11"><metadata
     id="metadata39"><rdf:RDF><cc:Work
         rdf:about=""><dc:format>image/svg+xml</dc:format><dc:type
           rdf:resource="http://purl.org/dc/dcmitype/StillImage" /><dc:title></dc:title></cc:Work></rdf:RDF></metadata><defs
     id="defs37" /><sodipodi:namedview
     pagecolor="#ffffff"
     bordercolor="#666666"
     borderopacity="1"
     objecttolerance="10"
     gridtolerance="10"
     guidetolerance="10"
     inkscape:pageopacity="0"
     inkscape:pageshadow="2"
     inkscape:window-width="1391"
     inkscape:window-height="891"
     id="namedview35"
     showgrid="false"
     inkscape:pagecheckerboard="true"
     inkscape:zoom="22.476725"
     inkscape:cx="11.459492"
     inkscape:cy="12.924481"
     inkscape:window-x="370"
     inkscape:window-y="106"
     inkscape:window-maximized="0"
     inkscape:current-layer="Capa_1" /><path
     d="M 12.176471,15.402455 16.46229,8.854062 C 16.50751,8.784732 16.51222,8.694868 16.47558,8.620804 16.4385,8.546514 16.365644,8.499997 16.285928,8.499997 H 7.714292 c -0.07972,0 -0.15279,0.04651 -0.189862,0.120807 C 7.50814,8.653776 7.5,8.689898 7.5,8.725799 c 0,0.04493 0.01286,0.08964 0.03793,0.128257 l 4.285818,6.548394 c 0.04007,0.06119 0.10586,0.09755 0.176362,0.09755 0.0705,0 0.136289,-0.03658 0.176361,-0.09755 z"
     id="path2"
     inkscape:connector-curvature="0"
     style="fill:#ffffff;fill-opacity:1;stroke-width:0.21997344" /><g
     id="g4"
     transform="translate(0,-17.999001)" /><g
     id="g6"
     transform="translate(0,-17.999001)" /><g
     id="g8"
     transform="translate(0,-17.999001)" /><g
     id="g10"
     transform="translate(0,-17.999001)" /><g
     id="g12"
     transform="translate(0,-17.999001)" /><g
     id="g14"
     transform="translate(0,-17.999001)" /><g
     id="g16"
     transform="translate(0,-17.999001)" /><g
     id="g18"
     transform="translate(0,-17.999001)" /><g
     id="g20"
     transform="translate(0,-17.999001)" /><g
     id="g22"
     transform="translate(0,-17.999001)" /><g
     id="g24"
     transform="translate(0,-17.999001)" /><g
     id="g26"
     transform="translate(0,-17.999001)" /><g
     id="g28"
     transform="translate(0,-17.999001)" /><g
     id="g30"
     transform="translate(0,-17.999001)" /><g
     id="g32"
     transform="translate(0,-17.999001)" /></svg>