<?xml version="1.0" encoding="UTF-8" standalone="no"?>
<!-- Generator: Adobe Illustrator 19.0.0, SVG Export Plug-In . SVG Version: 6.00 Build 0)  -->

<svg
   xmlns:dc="http://purl.org/dc/elements/1.1/"
   xmlns:cc="http://creativecommons.org/ns#"
   xmlns:rdf="http://www.w3.org/1999/02/22-rdf-syntax-ns#"
   xmlns:svg="http://www.w3.org/2000/svg"
   xmlns="http://www.w3.org/2000/svg"
   xmlns:sodipodi="http://sodipodi.sourceforge.net/DTD/sodipodi-0.dtd"
   xmlns:inkscape="http://www.inkscape.org/namespaces/inkscape"
   version="1.1"
   id="Capa_1"
   x="0px"
   y="0px"
   viewBox="0 0 11 11"
   xml:space="preserve"
   sodipodi:docname="arrow-down-prelight.svg"
   width="11"
   height="11"
   inkscape:version="0.92.2 2405546, 2018-03-11"><metadata
     id="metadata39"><rdf:RDF><cc:Work
         rdf:about=""><dc:format>image/svg+xml</dc:format><dc:type
           rdf:resource="http://purl.org/dc/dcmitype/StillImage" /><dc:title /></cc:Work></rdf:RDF></metadata><defs
     id="defs37" /><sodipodi:namedview
     pagecolor="#ffffff"
     bordercolor="#666666"
     borderopacity="1"
     objecttolerance="10"
     gridtolerance="10"
     guidetolerance="10"
     inkscape:pageopacity="0"
     inkscape:pageshadow="2"
     inkscape:window-width="1131"
     inkscape:window-height="839"
     id="namedview35"
     showgrid="false"
     inkscape:pagecheckerboard="true"
     inkscape:zoom="44.953451"
     inkscape:cx="3.4391093"
     inkscape:cy="5.8504964"
     inkscape:window-x="478"
     inkscape:window-y="134"
     inkscape:window-maximized="0"
     inkscape:current-layer="Capa_1" /><path
     d="M 5.6372532,7.9163949 8.9706673,2.3034842 C 9.0058383,2.2440623 9.0095013,2.1670325 8.9810043,2.1035489 8.9521643,2.039873 8.8954983,2.0000001 8.8334969,2.0000001 H 2.1666705 c -0.062004,0 -0.1188366,0.039867 -0.1476694,0.1035488 C 2.0063311,2.1318099 2,2.1627719 2,2.1935439 2,2.2320569 2.010002,2.2703799 2.029501,2.3034793 L 5.3629131,7.91639 C 5.3940791,7.968839 5.4452491,8 5.5000835,8 5.5549165,8 5.606086,7.96865 5.6372531,7.91639 Z"
     id="path2"
     inkscape:connector-curvature="0"
     style="fill:#cd0000;fill-opacity:1;stroke-width:0.17960756" /><g
     id="g4"
     transform="translate(0,-30.999001)" /><g
     id="g6"
     transform="translate(0,-30.999001)" /><g
     id="g8"
     transform="translate(0,-30.999001)" /><g
     id="g10"
     transform="translate(0,-30.999001)" /><g
     id="g12"
     transform="translate(0,-30.999001)" /><g
     id="g14"
     transform="translate(0,-30.999001)" /><g
     id="g16"
     transform="translate(0,-30.999001)" /><g
     id="g18"
     transform="translate(0,-30.999001)" /><g
     id="g20"
     transform="translate(0,-30.999001)" /><g
     id="g22"
     transform="translate(0,-30.999001)" /><g
     id="g24"
     transform="translate(0,-30.999001)" /><g
     id="g26"
     transform="translate(0,-30.999001)" /><g
     id="g28"
     transform="translate(0,-30.999001)" /><g
     id="g30"
     transform="translate(0,-30.999001)" /><g
     id="g32"
     transform="translate(0,-30.999001)" /></svg>