<?xml version="1.0" encoding="UTF-8" standalone="no"?>
<!-- Generator: Adobe Illustrator 19.0.0, SVG Export Plug-In . SVG Version: 6.00 Build 0)  -->

<svg
   xmlns:dc="http://purl.org/dc/elements/1.1/"
   xmlns:cc="http://creativecommons.org/ns#"
   xmlns:rdf="http://www.w3.org/1999/02/22-rdf-syntax-ns#"
   xmlns:svg="http://www.w3.org/2000/svg"
   xmlns="http://www.w3.org/2000/svg"
   xmlns:sodipodi="http://sodipodi.sourceforge.net/DTD/sodipodi-0.dtd"
   xmlns:inkscape="http://www.inkscape.org/namespaces/inkscape"
   version="1.1"
   id="Capa_1"
   x="0px"
   y="0px"
   viewBox="0 0 11 11"
   xml:space="preserve"
   sodipodi:docname="arrow-up-insensitive.svg"
   width="11"
   height="11"
   inkscape:version="0.92.2 2405546, 2018-03-11"><metadata
     id="metadata39"><rdf:RDF><cc:Work
         rdf:about=""><dc:format>image/svg+xml</dc:format><dc:type
           rdf:resource="http://purl.org/dc/dcmitype/StillImage" /><dc:title /></cc:Work></rdf:RDF></metadata><defs
     id="defs37" /><sodipodi:namedview
     pagecolor="#ffffff"
     bordercolor="#666666"
     borderopacity="1"
     objecttolerance="10"
     gridtolerance="10"
     guidetolerance="10"
     inkscape:pageopacity="0"
     inkscape:pageshadow="2"
     inkscape:window-width="1131"
     inkscape:window-height="839"
     id="namedview35"
     showgrid="false"
     inkscape:pagecheckerboard="true"
     inkscape:zoom="44.953451"
     inkscape:cx="2.8253965"
     inkscape:cy="5.8504964"
     inkscape:window-x="478"
     inkscape:window-y="134"
     inkscape:window-maximized="0"
     inkscape:current-layer="Capa_1" /><path
     d="M 5.3627461,3.0836052 2.0293325,8.6965159 C 1.9941615,8.7559378 1.9904985,8.8329676 2.0189955,8.8964512 2.0478355,8.9601271 2.1045015,9 2.1665025,9 h 6.6668261 c 0.062004,0 0.1188366,-0.039868 0.1476701,-0.1035488 0.01267,-0.028261 0.019001,-0.059223 0.019001,-0.089995 0,-0.038513 -0.010002,-0.076836 -0.029501,-0.1099354 L 5.6370861,3.0836097 c -0.031166,-0.052449 -0.082336,-0.08361 -0.1371704,-0.08361 -0.054833,0 -0.1060025,0.03135 -0.1371696,0.08361 z"
     id="path2"
     inkscape:connector-curvature="0"
     style="fill:#787878;fill-opacity:1;stroke-width:0.17960756" /><g
     id="g4"
     transform="translate(0,-30.999001)" /><g
     id="g6"
     transform="translate(0,-30.999001)" /><g
     id="g8"
     transform="translate(0,-30.999001)" /><g
     id="g10"
     transform="translate(0,-30.999001)" /><g
     id="g12"
     transform="translate(0,-30.999001)" /><g
     id="g14"
     transform="translate(0,-30.999001)" /><g
     id="g16"
     transform="translate(0,-30.999001)" /><g
     id="g18"
     transform="translate(0,-30.999001)" /><g
     id="g20"
     transform="translate(0,-30.999001)" /><g
     id="g22"
     transform="translate(0,-30.999001)" /><g
     id="g24"
     transform="translate(0,-30.999001)" /><g
     id="g26"
     transform="translate(0,-30.999001)" /><g
     id="g28"
     transform="translate(0,-30.999001)" /><g
     id="g30"
     transform="translate(0,-30.999001)" /><g
     id="g32"
     transform="translate(0,-30.999001)" /></svg>