<?xml version="1.0" encoding="UTF-8" standalone="no"?>
<!-- Created with Inkscape (http://www.inkscape.org/) -->

<svg
   xmlns:dc="http://purl.org/dc/elements/1.1/"
   xmlns:cc="http://creativecommons.org/ns#"
   xmlns:rdf="http://www.w3.org/1999/02/22-rdf-syntax-ns#"
   xmlns:svg="http://www.w3.org/2000/svg"
   xmlns="http://www.w3.org/2000/svg"
   xmlns:sodipodi="http://sodipodi.sourceforge.net/DTD/sodipodi-0.dtd"
   xmlns:inkscape="http://www.inkscape.org/namespaces/inkscape"
   width="40"
   height="34"
   viewBox="0 0 40 34"
   version="1.1"
   id="svg8"
   inkscape:version="0.92.4 5da689c313, 2019-01-14"
   sodipodi:docname="close-prelight.svg">
  <defs
     id="defs2" />
  <sodipodi:namedview
     id="base"
     pagecolor="#ffffff"
     bordercolor="#666666"
     borderopacity="1.0"
     inkscape:pageopacity="0.0"
     inkscape:pageshadow="2"
     inkscape:zoom="15.839192"
     inkscape:cx="5.5955902"
     inkscape:cy="23.294146"
     inkscape:document-units="px"
     inkscape:current-layer="layer1"
     showgrid="false"
     units="px"
     inkscape:pagecheckerboard="true"
     inkscape:window-width="1540"
     inkscape:window-height="985"
     inkscape:window-x="0"
     inkscape:window-y="0"
     inkscape:window-maximized="0" />
  <metadata
     id="metadata5">
    <rdf:RDF>
      <cc:Work
         rdf:about="">
        <dc:format>image/svg+xml</dc:format>
        <dc:type
           rdf:resource="http://purl.org/dc/dcmitype/StillImage" />
        <dc:title />
      </cc:Work>
    </rdf:RDF>
  </metadata>
  <g
     inkscape:label="Capa 1"
     inkscape:groupmode="layer"
     id="layer1"
     transform="translate(0,-292.41665)">
    <g
       id="g860">
      <g
         transform="rotate(-180,20,312.41665)"
         id="g855">
        <rect
           style="opacity:1;fill:#4e5557;fill-opacity:1;stroke:none;stroke-width:1.48323965;stroke-miterlimit:4;stroke-dasharray:none;stroke-opacity:1"
           id="rect819"
           width="40"
           height="22"
           x="0"
           y="304.41666" />
        <rect
           style="opacity:1;fill:#000000;fill-opacity:1;fill-rule:evenodd;stroke:none;stroke-width:0.76578045;stroke-miterlimit:4;stroke-dasharray:none;stroke-opacity:1"
           id="rect4504"
           width="38"
           height="20"
           x="2"
           y="306.41666" />
        <rect
           style="opacity:1;fill:#8c9090;fill-opacity:1;stroke:none;stroke-width:1.49185526;stroke-miterlimit:4;stroke-dasharray:none;stroke-opacity:1"
           id="rect817"
           width="38"
           height="20"
           x="1"
           y="305.41666" />
        <g
           id="g838">
          <rect
             y="324.41663"
             x="1.0000018"
             height="1"
             width="38"
             id="rect816"
             style="opacity:1;fill:#5a5a5a;fill-opacity:1;stroke:#7a7a7a;stroke-width:0;stroke-miterlimit:4;stroke-dasharray:none;stroke-opacity:1" />
          <rect
             transform="rotate(90)"
             y="-39"
             x="305.41663"
             height="1"
             width="20"
             id="rect816-3"
             style="opacity:1;fill:#5a5a5a;fill-opacity:1;stroke:#7a7a7a;stroke-width:0;stroke-miterlimit:4;stroke-dasharray:none;stroke-opacity:1" />
        </g>
        <g
           id="g844">
          <rect
             transform="matrix(0,-1,-1,0,0,0)"
             y="-2.0000036"
             x="-325.41663"
             height="1"
             width="20"
             id="rect816-7"
             style="opacity:1;fill:#b4b4b4;fill-opacity:1;stroke:#7a7a7a;stroke-width:0;stroke-miterlimit:4;stroke-dasharray:none;stroke-opacity:1" />
          <rect
             transform="scale(-1,1)"
             y="305.41666"
             x="-39.000004"
             height="1"
             width="38"
             id="rect816-3-5"
             style="opacity:1;fill:#b4b4b4;fill-opacity:1;stroke:#7a7a7a;stroke-width:0;stroke-miterlimit:4;stroke-dasharray:none;stroke-opacity:1" />
        </g>
      </g>
      <g
         style="fill:#ffffff;fill-opacity:1"
         transform="matrix(0.03444974,0,0,0.03444997,14.000009,303.41659)"
         id="g4">
        <path
           style="fill:#ffffff;fill-opacity:1"
           inkscape:connector-curvature="0"
           id="path2"
           d="M 336.559,68.611 231.016,174.165 336.559,279.714 c 15.699,15.705 15.699,41.145 0,56.85 -7.844,7.844 -18.128,11.769 -28.407,11.769 -10.296,0 -20.581,-3.919 -28.419,-11.769 L 174.167,231.003 68.609,336.563 c -7.843,7.844 -18.128,11.769 -28.416,11.769 -10.285,0 -20.563,-3.919 -28.413,-11.769 -15.699,-15.698 -15.699,-41.139 0,-56.85 L 117.32,174.164 11.774,68.611 C -3.925,52.912 -3.925,27.466 11.774,11.767 27.47,-3.92 52.901,-3.92 68.603,11.767 L 174.166,117.321 279.721,11.767 c 15.705,-15.687 41.139,-15.687 56.832,0 15.705,15.699 15.705,41.145 0.006,56.844 z" />
      </g>
    </g>
  </g>
</svg>
