/* XPM */
static char * bottom_left_active_xpm[] = {
"3 3 3 1",
" 	c None",
".	c #400000",
"@	c #DEDEDE s active_color_2",
"..@",
"...",
"..."};
