/* XPM */
static char * bottom_active_xpm[] = {
"8 3 3 1",
" 	c None",
".	c #400000",
"@	c #DEDEDE s active_color_2",
"@@@@@@@@",
"........",
"........"};
