/* XPM */
static char * right_active_xpm[] = {
"3 21 3 1",
" 	c None",
".	c #400000",
"@	c #DEDEDE s active_color_2",
"@..",
"@..",
"@..",
"@..",
"@..",
"@..",
"@..",
"@..",
"@..",
"@..",
"@..",
"@..",
"@..",
"@..",
"@..",
"@..",
"@..",
"@..",
"@..",
"@..",
"@.."};
