/* XPM */
static char * top_right_active_xpm[] = {
"3 34 4 1",
" 	c None",
"x	c #4D0000",
".	c #400000",
"@	c #DEDEDE s active_color_2",
"xx.",
"x..",
"@..",
"@..",
"@..",
"@..",
"@..",
"@..",
"@..",
"@..",
"@..",
"@..",
"@..",
"@..",
"@..",
"@..",
"@..",
"@..",
"@..",
"@..",
"@..",
"@..",
"@..",
"@..",
"@..",
"@..",
"@..",
"@..",
"@..",
"@..",
"@..",
"@..",
"@..",
"@.."};
