/* XPM */
static char * top_left_active_xpm[] = {
"3 34 3 1",
" 	c None",
".	c #540000",
"@	c #DEDEDE s active_color_2",
"...",
"...",
"..@",
"..@",
"..@",
"..@",
"..@",
"..@",
"..@",
"..@",
"..@",
"..@",
"..@",
"..@",
"..@",
"..@",
"..@",
"..@",
"..@",
"..@",
"..@",
"..@",
"..@",
"..@",
"..@",
"..@",
"..@",
"..@",
"..@",
"..@",
"..@",
"..@",
"..@",
"..@"};
